<svg width="512" height="512" viewBox="0 0 512 512" fill="none" xmlns="http://www.w3.org/2000/svg">
  <path d="M96 326C96 237.635 167.635 166 256 166C344.365 166 416 237.635 416 326C416 339.255 405.255 350 392 350H120C106.745 350 96 339.255 96 326Z" fill="#1E4F7A"/>

  <path d="M128 318C128 247.308 185.308 190 256 190C292.721 190 325.836 205.457 349.176 230.238L316.24 261.278C301.44 245.824 280.601 236.16 256 236.16C211.264 236.16 174.999 272.425 174.999 317.161L128 318Z" fill="#68D0B4"/>
  <path d="M363.09 246.437C379.267 266.51 389 292.042 389 320C389 335.464 376.464 348 361 348H321.438L321.437 301C337.867 301 351.187 287.68 351.187 271.25C351.187 261.945 346.914 253.639 340.23 248.205L363.09 246.437Z" fill="#F5B54A"/>
  <path d="M321.438 348H151C135.536 348 123 335.464 123 320H170C170 304.536 182.536 292 198 292H321.437V348Z" fill="#F7F4EE"/>
  <path d="M351.108 242.846C372.849 261.744 386.562 289.591 388.243 320.57L341.286 323.117C340.43 307.33 333.449 293.176 322.635 282.95L351.108 242.846Z" fill="#F38E4A"/>

  <path d="M149 318C149 258.905 196.905 211 256 211C315.095 211 363 258.905 363 318" stroke="#0F3F67" stroke-width="18" stroke-linecap="round"/>

  <path d="M256 210V246" stroke="#F5B54A" stroke-width="12" stroke-linecap="round"/>
  <path d="M182 246L202 274" stroke="#F5B54A" stroke-width="12" stroke-linecap="round"/>
  <path d="M330 246L310 274" stroke="#F5B54A" stroke-width="12" stroke-linecap="round"/>

  <path d="M256 318L334 260" stroke="#0F3F67" stroke-width="18" stroke-linecap="round"/>
  <path d="M256 318L322 274" stroke="#FF8A57" stroke-width="10" stroke-linecap="round"/>

  <circle cx="256" cy="318" r="30" fill="#F58A50" stroke="#0F3F67" stroke-width="16"/>
</svg>
