<?xml version="1.0" encoding="iso-8859-1"?>
<!-- Generator: Adobe Illustrator 19.0.0, SVG Export Plug-In . SVG Version: 6.00 Build 0)  -->
<svg version="1.1" id="Layer_1" xmlns="http://www.w3.org/2000/svg" xmlns:xlink="http://www.w3.org/1999/xlink" x="0px" y="0px"
	 viewBox="0 0 508 508" style="enable-background:new 0 0 508 508;" xml:space="preserve">
<circle style="fill:#84DBFF;" cx="254" cy="254" r="254"/>
<path style="fill:#54C0EB;" d="M79.2,438.4C124.8,481.6,186,508,254,508s129.2-26.4,174.8-69.6H79.2z"/>
<ellipse style="fill:#F9B54C;" cx="254" cy="240.8" rx="26.4" ry="45.2"/>
<path style="fill:#FF7058;" d="M347.2,392c4.4-18,7.2-36,7.2-52.8c0-71.2-44.8-93.2-100.4-93.2c-55.2,0-100.4,21.6-100.4,93.2
	c0,16.8,2.4,34.8,7.2,52.8H347.2z"/>
<g>
	<path style="fill:#FFFFFF;" d="M280,238.4c0,0-15.2,9.2-26,9.2l14,30.4l20-28.4L280,238.4z"/>
	<path style="fill:#FFFFFF;" d="M228,238.4c0,0,15.2,9.2,26,9.2L240,278l-20-28.4L228,238.4z"/>
</g>
<path style="fill:#324A5E;" d="M327.2,111.2c0,42.4-32.8,101.6-73.2,101.6s-73.2-59.2-73.2-101.6s32.8-60.8,73.2-60.8
	S327.2,68.8,327.2,111.2z"/>
<path style="fill:#FFD05B;" d="M308.4,153.6c0,43.2-24.4,78-54.4,78s-54.4-34.8-54.4-78c0-25.6,8.8-48.4,22-62.8
	c9.6,9.6,21.2,18.8,34.4,26.8c17.6,10.8,35.2,18.4,51.2,22.8C308,144.8,308.4,149.2,308.4,153.6z"/>
<path style="fill:#324A5E;" d="M351.6,437.6H156.4c-6.8,0-12.8-3.2-13.6-7.6l-24.4-120c-1.2-6.4,4.4-11.6,12.8-11.6h245.6
	c8.4,0,14,5.2,12.8,11.6l-24.4,120C364.4,434,358.4,437.6,351.6,437.6z"/>
<ellipse style="fill:#2B3B4E;" cx="254" cy="362.4" rx="30" ry="12.8"/>
<g>
</g>
<g>
</g>
<g>
</g>
<g>
</g>
<g>
</g>
<g>
</g>
<g>
</g>
<g>
</g>
<g>
</g>
<g>
</g>
<g>
</g>
<g>
</g>
<g>
</g>
<g>
</g>
<g>
</g>
</svg>
