<?xml version="1.0" encoding="iso-8859-1"?>
<!-- Generator: Adobe Illustrator 19.0.0, SVG Export Plug-In . SVG Version: 6.00 Build 0)  -->
<svg version="1.1" id="Layer_1" xmlns="http://www.w3.org/2000/svg" xmlns:xlink="http://www.w3.org/1999/xlink" x="0px" y="0px"
	 viewBox="0 0 508 508" style="enable-background:new 0 0 508 508;" xml:space="preserve">
<circle style="fill:#54C0EB;" cx="254" cy="254" r="254"/>
<path style="fill:#FFFFFF;" d="M388.8,300.4H148.4c-21.6,0-38.8,17.6-38.8,38.8c0,21.6,17.6,38.8,38.8,38.8h240.4V300.4z"/>
<path style="fill:#FF7058;" d="M390,384.4H148.4c-24.8,0-44.8-20-44.8-44.8s20-44.8,44.8-44.8H390c3.2,0,6,2.8,6,6s-2.8,6-6,6H148.4
	c-18.4,0-33.2,14.8-33.2,33.2s14.8,33.2,33.2,33.2H390c3.2,0,6,2.8,6,6C396,381.6,393.2,384.4,390,384.4z"/>
<path style="fill:#E6E9EE;" d="M408,210.4H167.6c-21.6,0-38.8,17.6-38.8,38.8s17.6,38.8,38.8,38.8H408V210.4z"/>
<path style="fill:#FFFFFF;" d="M100,120.8h240.4c21.6,0,38.8,17.6,38.8,38.8s-17.6,38.8-38.8,38.8H100V120.8z"/>
<path style="fill:#FFD05B;" d="M98.8,204.8h241.6c24.8,0,44.8-20,44.8-44.8s-20-44.8-44.8-44.8H98.8c-3.2,0-6,2.8-6,6s2.8,6,6,6
	h241.6c18.4,0,33.2,14.8,33.2,33.2s-14.8,33.2-33.2,33.2H98.8c-3.2,0-6,2.8-6,6S95.6,204.8,98.8,204.8z"/>
<path style="fill:#324A5E;" d="M409.2,294.4H167.6c-24.8,0-44.8-20-44.8-44.8s20-44.8,44.8-44.8h241.6c3.2,0,6,2.8,6,6s-2.8,6-6,6
	H167.6c-18.4,0-33.2,14.8-33.2,33.2s14.8,33.2,33.2,33.2h241.6c3.2,0,6,2.8,6,6C415.2,291.6,412.4,294.4,409.2,294.4z"/>
<polygon style="fill:#4CDBC4;" points="359.2,235.2 359.2,292.4 342.4,274.4 324,294.4 324,235.2 "/>
<polygon style="fill:#324A5E;" points="191.6,334 191.6,391.2 175.2,373.2 156.8,393.2 156.8,334 "/>
<polygon style="fill:#FF7058;" points="153.2,141.6 153.2,198.8 136.4,180.8 118.4,200.8 118.4,141.6 "/>
<g>
</g>
<g>
</g>
<g>
</g>
<g>
</g>
<g>
</g>
<g>
</g>
<g>
</g>
<g>
</g>
<g>
</g>
<g>
</g>
<g>
</g>
<g>
</g>
<g>
</g>
<g>
</g>
<g>
</g>
</svg>
