<?xml version="1.0" encoding="iso-8859-1"?>
<!-- Generator: Adobe Illustrator 19.0.0, SVG Export Plug-In . SVG Version: 6.00 Build 0)  -->
<svg version="1.1" id="Layer_1" xmlns="http://www.w3.org/2000/svg" xmlns:xlink="http://www.w3.org/1999/xlink" x="0px" y="0px"
	 viewBox="0 0 508 508" style="enable-background:new 0 0 508 508;" xml:space="preserve">
<circle style="fill:#84DBFF;" cx="254" cy="254" r="254"/>
<path style="fill:#324A5E;" d="M203.6,206.8v-56c0-27.6,22.4-50.4,50.4-50.4s50.4,22.4,50.4,50.4v56H332v-56c0-43.2-35.2-78-78-78
	s-78,35.2-78,78v56H203.6z"/>
<path style="fill:#FFFFFF;" d="M358,202H150c-6,0-11.2,4.8-11.2,11.2V388c0,6,4.8,11.2,11.2,11.2h208c6,0,11.2-4.8,11.2-11.2V212.8
	C369.2,206.8,364,202,358,202z"/>
<rect x="168.4" y="230.4" style="fill:#E6E9EE;" width="171.2" height="140"/>
<path style="fill:#324A5E;" d="M272.8,287.6c0-10.4-8.4-18.8-18.8-18.8c-10.4,0-18.8,8.4-18.8,18.8c0,6.8,3.6,12.4,8.8,16l-4.4,28.4
	H268l-4.4-28.4C269.2,300.4,272.8,294.4,272.8,287.6z"/>
<g>
</g>
<g>
</g>
<g>
</g>
<g>
</g>
<g>
</g>
<g>
</g>
<g>
</g>
<g>
</g>
<g>
</g>
<g>
</g>
<g>
</g>
<g>
</g>
<g>
</g>
<g>
</g>
<g>
</g>
</svg>
