<?xml version="1.0" encoding="iso-8859-1"?>
<!-- Generator: Adobe Illustrator 19.0.0, SVG Export Plug-In . SVG Version: 6.00 Build 0)  -->
<svg version="1.1" id="Capa_1" xmlns="http://www.w3.org/2000/svg" xmlns:xlink="http://www.w3.org/1999/xlink" x="0px" y="0px"
	 viewBox="0 0 480 480" style="enable-background:new 0 0 480 480;" xml:space="preserve">
<g>
	<g>
		<path d="M472,296h-16V176c0-2.28-0.976-4.456-2.672-5.968c-1.704-1.528-3.96-2.272-6.24-1.976L424,170.72V144
			c0-2.312-1-4.504-2.736-6.024c-1.744-1.52-4.032-2.208-6.344-1.904l-95.008,12.96C330.344,133.448,336,115.216,336,96
			c0-52.936-43.064-96-96-96c-52.936,0-96,43.064-96,96c0,19.216,5.656,37.448,16.088,53.032l-95.008-12.96
			c-2.32-0.304-4.6,0.384-6.344,1.904C57,139.496,56,141.688,56,144v26.72l-23.08-2.664c-2.288-0.296-4.544,0.456-6.24,1.976
			C24.976,171.544,24,173.72,24,176v120H8c-4.416,0-8,3.576-8,8v96c0,4.424,3.584,8,8,8h16v40c0,4.064,3.048,7.488,7.08,7.944
			l208,24c0.312,0.04,0.616,0.056,0.92,0.056s0.608-0.016,0.92-0.056l208-24c4.032-0.456,7.08-3.88,7.08-7.944v-40h16
			c4.416,0,8-3.576,8-8v-96C480,299.576,476.416,296,472,296z M408,153.168v19.392l-160,18.456v-16.04l53.64-7.312h0.008
			L408,153.168z M16,392v-80h16c22.056,0,40,17.944,40,40c0,22.056-17.944,40-40,40H16z M232,463.024l-192-22.16v-33.44
			c0.624-0.088,1.224-0.24,1.832-0.352c0.752-0.136,1.504-0.264,2.24-0.424c1.032-0.224,2.04-0.504,3.048-0.784
			c0.696-0.192,1.392-0.376,2.08-0.6c1.056-0.344,2.08-0.736,3.112-1.144c0.6-0.232,1.208-0.44,1.792-0.696
			c1.192-0.512,2.344-1.096,3.496-1.688c0.392-0.2,0.8-0.376,1.192-0.592c1.528-0.832,3.008-1.736,4.448-2.704
			c0.248-0.168,0.472-0.352,0.712-0.52c1.168-0.816,2.32-1.664,3.424-2.56c0.456-0.376,0.888-0.784,1.336-1.176
			c0.848-0.744,1.696-1.488,2.504-2.28c0.48-0.472,0.928-0.968,1.384-1.456c0.72-0.76,1.44-1.528,2.12-2.328
			c0.456-0.536,0.888-1.096,1.32-1.656c0.632-0.8,1.248-1.608,1.832-2.448c0.416-0.6,0.816-1.208,1.208-1.816
			c0.544-0.84,1.064-1.696,1.56-2.568c0.368-0.648,0.72-1.288,1.064-1.952c0.464-0.888,0.896-1.792,1.312-2.712
			c0.304-0.672,0.608-1.352,0.888-2.04c0.384-0.952,0.728-1.92,1.064-2.896c0.232-0.688,0.48-1.376,0.688-2.072
			c0.304-1.032,0.56-2.08,0.808-3.136c0.16-0.68,0.344-1.344,0.48-2.032c0.232-1.176,0.392-2.376,0.544-3.576
			c0.08-0.592,0.184-1.168,0.248-1.76C87.896,355.68,88,353.848,88,352c0-1.848-0.104-3.68-0.28-5.48
			c-0.056-0.592-0.168-1.176-0.248-1.76c-0.152-1.2-0.312-2.4-0.544-3.568c-0.136-0.688-0.32-1.36-0.48-2.04
			c-0.248-1.048-0.496-2.104-0.808-3.128c-0.208-0.704-0.456-1.384-0.688-2.072c-0.336-0.976-0.68-1.944-1.064-2.896
			c-0.28-0.688-0.584-1.36-0.888-2.04c-0.416-0.92-0.848-1.824-1.312-2.712c-0.344-0.656-0.696-1.312-1.064-1.952
			c-0.496-0.872-1.016-1.72-1.56-2.56c-0.4-0.616-0.792-1.224-1.216-1.824c-0.584-0.832-1.2-1.64-1.824-2.44
			c-0.44-0.56-0.864-1.112-1.328-1.656c-0.68-0.8-1.392-1.568-2.12-2.328c-0.464-0.488-0.912-0.984-1.384-1.456
			c-0.808-0.792-1.656-1.536-2.504-2.28c-0.448-0.392-0.872-0.8-1.336-1.176c-1.088-0.896-2.232-1.728-3.384-2.536
			c-0.256-0.176-0.488-0.376-0.752-0.552c-1.432-0.968-2.92-1.864-4.44-2.704c-0.384-0.208-0.8-0.384-1.192-0.592
			c-1.144-0.592-2.304-1.168-3.496-1.688c-0.584-0.256-1.192-0.464-1.792-0.696c-1.032-0.4-2.056-0.8-3.112-1.144
			c-0.688-0.224-1.384-0.4-2.08-0.6c-1-0.28-2.008-0.552-3.032-0.784c-0.744-0.168-1.504-0.296-2.256-0.432
			c-0.6-0.096-1.2-0.248-1.816-0.336V184.976l23.08,2.664l15.616,1.8L232,207.136V463.024z M232,191.024L72,172.56v-19.392
			l106.36,14.504h0.008L232,174.984V191.024z M240,159.928l-56.848-7.76C168.2,137.088,160,117.232,160,96c0-44.112,35.888-80,80-80
			s80,35.888,80,80c0,21.232-8.2,41.088-23.152,56.168L240,159.928z M440,440.864l-192,22.16V207.136l153.296-17.688l15.616-1.8
			L440,184.976V296.64c-27.096,3.904-48,27.208-48,55.36s20.904,51.456,48,55.36V440.864z M464,392h-16c-22.056,0-40-17.944-40-40
			c0-22.056,17.944-40,40-40h16V392z"/>
	</g>
</g>
<g>
	<g>
		<path d="M413.296,218c-1.72-1.512-3.984-2.2-6.288-1.936l-128,16C275,232.56,272,235.968,272,240v64c0,2.296,0.984,4.48,2.704,6
			c1.472,1.296,3.36,2,5.296,2c0.328,0,0.664-0.024,0.992-0.064l128-16C413,295.44,416,292.032,416,288v-64
			C416,221.704,415.016,219.52,413.296,218z M400,280.936l-112,14v-47.872l112-14V280.936z"/>
	</g>
</g>
<g>
</g>
<g>
</g>
<g>
</g>
<g>
</g>
<g>
</g>
<g>
</g>
<g>
</g>
<g>
</g>
<g>
</g>
<g>
</g>
<g>
</g>
<g>
</g>
<g>
</g>
<g>
</g>
<g>
</g>
</svg>
